<mxfile host="app.diagrams.net" modified="2021-11-26T07:07:21.764Z" agent="5.0 (Windows NT 10.0; Win64; x64) AppleWebKit/537.36 (KHTML, like Gecko) Chrome/96.0.4664.55 Safari/537.36 Edg/96.0.1054.34" etag="L6L8Lc2XycZ4Gq9YnGfx" version="15.0.2" type="github">
  <diagram id="prtHgNgQTEPvFCAcTncT" name="Page-1">
    <mxGraphModel dx="865" dy="486" grid="1" gridSize="10" guides="1" tooltips="1" connect="1" arrows="1" fold="1" page="1" pageScale="1" pageWidth="827" pageHeight="1169" math="0" shadow="0">
      <root>
        <mxCell id="0" />
        <mxCell id="1" parent="0" />
        <mxCell id="VUhCnDPMTSJ1DIjVigsS-2" value="" style="rounded=0;whiteSpace=wrap;html=1;" vertex="1" parent="1">
          <mxGeometry x="90" y="190" width="180" height="50" as="geometry" />
        </mxCell>
        <mxCell id="VUhCnDPMTSJ1DIjVigsS-5" value="mosd" style="rounded=0;whiteSpace=wrap;html=1;" vertex="1" parent="1">
          <mxGeometry x="100" y="200" width="60" height="30" as="geometry" />
        </mxCell>
        <mxCell id="VUhCnDPMTSJ1DIjVigsS-13" style="edgeStyle=orthogonalEdgeStyle;rounded=0;orthogonalLoop=1;jettySize=auto;html=1;entryX=1;entryY=0.5;entryDx=0;entryDy=0;startArrow=classic;startFill=1;" edge="1" parent="1" source="VUhCnDPMTSJ1DIjVigsS-6" target="VUhCnDPMTSJ1DIjVigsS-5">
          <mxGeometry relative="1" as="geometry" />
        </mxCell>
        <mxCell id="VUhCnDPMTSJ1DIjVigsS-6" value="go_pilot" style="rounded=0;whiteSpace=wrap;html=1;" vertex="1" parent="1">
          <mxGeometry x="200" y="200" width="60" height="30" as="geometry" />
        </mxCell>
        <mxCell id="VUhCnDPMTSJ1DIjVigsS-7" value="" style="rounded=0;whiteSpace=wrap;html=1;" vertex="1" parent="1">
          <mxGeometry x="360" y="190" width="180" height="50" as="geometry" />
        </mxCell>
        <mxCell id="VUhCnDPMTSJ1DIjVigsS-11" style="edgeStyle=orthogonalEdgeStyle;rounded=0;orthogonalLoop=1;jettySize=auto;html=1;entryX=0;entryY=0.5;entryDx=0;entryDy=0;startArrow=classic;startFill=1;" edge="1" parent="1" source="VUhCnDPMTSJ1DIjVigsS-6" target="VUhCnDPMTSJ1DIjVigsS-9">
          <mxGeometry relative="1" as="geometry" />
        </mxCell>
        <mxCell id="VUhCnDPMTSJ1DIjVigsS-8" value="mosd" style="rounded=0;whiteSpace=wrap;html=1;" vertex="1" parent="1">
          <mxGeometry x="470" y="200" width="60" height="30" as="geometry" />
        </mxCell>
        <mxCell id="VUhCnDPMTSJ1DIjVigsS-14" style="edgeStyle=orthogonalEdgeStyle;rounded=0;orthogonalLoop=1;jettySize=auto;html=1;entryX=0;entryY=0.5;entryDx=0;entryDy=0;startArrow=classic;startFill=1;" edge="1" parent="1" source="VUhCnDPMTSJ1DIjVigsS-9" target="VUhCnDPMTSJ1DIjVigsS-8">
          <mxGeometry relative="1" as="geometry" />
        </mxCell>
        <mxCell id="VUhCnDPMTSJ1DIjVigsS-9" value="go_pilot" style="rounded=0;whiteSpace=wrap;html=1;" vertex="1" parent="1">
          <mxGeometry x="370" y="200" width="60" height="30" as="geometry" />
        </mxCell>
        <mxCell id="VUhCnDPMTSJ1DIjVigsS-15" value="RPC" style="text;html=1;resizable=0;autosize=1;align=center;verticalAlign=middle;points=[];fillColor=none;strokeColor=none;rounded=0;" vertex="1" parent="1">
          <mxGeometry x="300" y="190" width="40" height="20" as="geometry" />
        </mxCell>
        <mxCell id="VUhCnDPMTSJ1DIjVigsS-16" value="IPC" style="text;html=1;resizable=0;autosize=1;align=center;verticalAlign=middle;points=[];fillColor=none;strokeColor=none;rounded=0;" vertex="1" parent="1">
          <mxGeometry x="160" y="190" width="40" height="20" as="geometry" />
        </mxCell>
        <mxCell id="VUhCnDPMTSJ1DIjVigsS-17" value="IPC" style="text;html=1;resizable=0;autosize=1;align=center;verticalAlign=middle;points=[];fillColor=none;strokeColor=none;rounded=0;" vertex="1" parent="1">
          <mxGeometry x="430" y="190" width="40" height="20" as="geometry" />
        </mxCell>
        <mxCell id="VUhCnDPMTSJ1DIjVigsS-18" value="" style="rounded=0;whiteSpace=wrap;html=1;" vertex="1" parent="1">
          <mxGeometry x="90" y="280" width="180" height="50" as="geometry" />
        </mxCell>
        <mxCell id="VUhCnDPMTSJ1DIjVigsS-19" value="mosd" style="rounded=0;whiteSpace=wrap;html=1;" vertex="1" parent="1">
          <mxGeometry x="100" y="290" width="60" height="30" as="geometry" />
        </mxCell>
        <mxCell id="VUhCnDPMTSJ1DIjVigsS-21" value="cpp_pilot" style="rounded=0;whiteSpace=wrap;html=1;" vertex="1" parent="1">
          <mxGeometry x="160" y="290" width="60" height="30" as="geometry" />
        </mxCell>
        <mxCell id="VUhCnDPMTSJ1DIjVigsS-22" value="" style="rounded=0;whiteSpace=wrap;html=1;" vertex="1" parent="1">
          <mxGeometry x="360" y="280" width="180" height="50" as="geometry" />
        </mxCell>
        <mxCell id="VUhCnDPMTSJ1DIjVigsS-23" style="edgeStyle=orthogonalEdgeStyle;rounded=0;orthogonalLoop=1;jettySize=auto;html=1;entryX=0;entryY=0.5;entryDx=0;entryDy=0;startArrow=classic;startFill=1;" edge="1" parent="1" source="VUhCnDPMTSJ1DIjVigsS-21" target="VUhCnDPMTSJ1DIjVigsS-26">
          <mxGeometry relative="1" as="geometry" />
        </mxCell>
        <mxCell id="VUhCnDPMTSJ1DIjVigsS-24" value="mosd" style="rounded=0;whiteSpace=wrap;html=1;" vertex="1" parent="1">
          <mxGeometry x="470" y="290" width="60" height="30" as="geometry" />
        </mxCell>
        <mxCell id="VUhCnDPMTSJ1DIjVigsS-26" value="cpp_pilot" style="rounded=0;whiteSpace=wrap;html=1;" vertex="1" parent="1">
          <mxGeometry x="410" y="290" width="60" height="30" as="geometry" />
        </mxCell>
        <mxCell id="VUhCnDPMTSJ1DIjVigsS-27" value="RPC" style="text;html=1;resizable=0;autosize=1;align=center;verticalAlign=middle;points=[];fillColor=none;strokeColor=none;rounded=0;" vertex="1" parent="1">
          <mxGeometry x="300" y="280" width="40" height="20" as="geometry" />
        </mxCell>
        <mxCell id="VUhCnDPMTSJ1DIjVigsS-31" value="" style="rounded=0;whiteSpace=wrap;html=1;" vertex="1" parent="1">
          <mxGeometry x="90" y="360" width="140" height="140" as="geometry" />
        </mxCell>
        <mxCell id="VUhCnDPMTSJ1DIjVigsS-47" style="edgeStyle=entityRelationEdgeStyle;rounded=0;orthogonalLoop=1;jettySize=auto;html=1;entryX=0;entryY=0;entryDx=0;entryDy=0;startArrow=none;startFill=0;" edge="1" parent="1" source="VUhCnDPMTSJ1DIjVigsS-32" target="VUhCnDPMTSJ1DIjVigsS-42">
          <mxGeometry relative="1" as="geometry" />
        </mxCell>
        <mxCell id="VUhCnDPMTSJ1DIjVigsS-32" value="服务注册/发现" style="rounded=0;whiteSpace=wrap;html=1;" vertex="1" parent="1">
          <mxGeometry x="120" y="390" width="80" height="40" as="geometry" />
        </mxCell>
        <mxCell id="VUhCnDPMTSJ1DIjVigsS-48" style="edgeStyle=entityRelationEdgeStyle;rounded=0;orthogonalLoop=1;jettySize=auto;html=1;entryX=0;entryY=0;entryDx=0;entryDy=0;startArrow=none;startFill=0;" edge="1" parent="1" source="VUhCnDPMTSJ1DIjVigsS-33" target="VUhCnDPMTSJ1DIjVigsS-41">
          <mxGeometry relative="1" as="geometry" />
        </mxCell>
        <mxCell id="VUhCnDPMTSJ1DIjVigsS-33" value="RPC转发" style="rounded=0;whiteSpace=wrap;html=1;" vertex="1" parent="1">
          <mxGeometry x="120" y="450" width="80" height="40" as="geometry" />
        </mxCell>
        <mxCell id="VUhCnDPMTSJ1DIjVigsS-35" value="&lt;span style=&quot;color: rgb(0, 0, 0); font-family: helvetica; font-size: 12px; font-style: normal; font-weight: 400; letter-spacing: normal; text-align: center; text-indent: 0px; text-transform: none; word-spacing: 0px; background-color: rgb(248, 249, 250); display: inline; float: none;&quot;&gt;cpp_pilot&lt;/span&gt;" style="text;whiteSpace=wrap;html=1;" vertex="1" parent="1">
          <mxGeometry x="90" y="360" width="70" height="30" as="geometry" />
        </mxCell>
        <mxCell id="VUhCnDPMTSJ1DIjVigsS-36" value="" style="rounded=0;whiteSpace=wrap;html=1;" vertex="1" parent="1">
          <mxGeometry x="360" y="440" width="120" height="60" as="geometry" />
        </mxCell>
        <mxCell id="VUhCnDPMTSJ1DIjVigsS-37" value="" style="rounded=0;whiteSpace=wrap;html=1;" vertex="1" parent="1">
          <mxGeometry x="360" y="360" width="160" height="60" as="geometry" />
        </mxCell>
        <mxCell id="VUhCnDPMTSJ1DIjVigsS-40" value="点对点转发" style="rounded=0;whiteSpace=wrap;html=1;" vertex="1" parent="1">
          <mxGeometry x="360" y="440" width="120" height="30" as="geometry" />
        </mxCell>
        <mxCell id="VUhCnDPMTSJ1DIjVigsS-41" value="经过中间节点转发" style="rounded=0;whiteSpace=wrap;html=1;" vertex="1" parent="1">
          <mxGeometry x="360" y="470" width="120" height="30" as="geometry" />
        </mxCell>
        <mxCell id="VUhCnDPMTSJ1DIjVigsS-42" value="etcd interface" style="rounded=0;whiteSpace=wrap;html=1;" vertex="1" parent="1">
          <mxGeometry x="360" y="390" width="160" height="30" as="geometry" />
        </mxCell>
        <mxCell id="VUhCnDPMTSJ1DIjVigsS-44" value="discovery" style="rounded=0;whiteSpace=wrap;html=1;" vertex="1" parent="1">
          <mxGeometry x="360" y="360" width="80" height="30" as="geometry" />
        </mxCell>
        <mxCell id="VUhCnDPMTSJ1DIjVigsS-46" value="provider" style="rounded=0;whiteSpace=wrap;html=1;" vertex="1" parent="1">
          <mxGeometry x="440" y="360" width="80" height="30" as="geometry" />
        </mxCell>
      </root>
    </mxGraphModel>
  </diagram>
</mxfile>
